<svg width="48" height="48" viewBox="0 0 48 48" fill="none" xmlns="http://www.w3.org/2000/svg">
<rect width="48" height="48" rx="12" fill="url(#paint0_linear_1050_1348)"/>
<path d="M19.856 28.592H12.872L11.672 32H8.816L14.792 15.296H17.96L23.936 32H21.056L19.856 28.592ZM19.088 26.36L16.376 18.608L13.64 26.36H19.088ZM38.1984 20.288C38.1984 21.136 37.9984 21.936 37.5984 22.688C37.1984 23.44 36.5584 24.056 35.6784 24.536C34.7984 25 33.6704 25.232 32.2944 25.232H29.2704V32H26.5344V15.32H32.2944C33.5744 15.32 34.6544 15.544 35.5344 15.992C36.4304 16.424 37.0944 17.016 37.5264 17.768C37.9744 18.52 38.1984 19.36 38.1984 20.288ZM32.2944 23C33.3344 23 34.1104 22.768 34.6224 22.304C35.1344 21.824 35.3904 21.152 35.3904 20.288C35.3904 18.464 34.3584 17.552 32.2944 17.552H29.2704V23H32.2944Z" fill="#F8F8F8"/>
<defs>
<linearGradient id="paint0_linear_1050_1348" x1="48" y1="48" x2="0" y2="0" gradientUnits="userSpaceOnUse">
<stop stop-color="#5656E9"/>
<stop offset="1" stop-color="#2522BA"/>
</linearGradient>
</defs>
</svg>
